<svg width="400" height="400" viewBox="0 0 400 400" fill="none" xmlns="http://www.w3.org/2000/svg">
<g clip-path="url(#clip0_1_2)">
<path d="M361 208.166C361.052 257.662 344.373 305.254 314.467 340.936C312.664 343.102 310.813 345.215 308.913 347.275C306.018 350.434 303.025 353.47 299.936 356.384C271.033 383.696 234.952 399.044 197.512 399.951C196.265 399.984 195.012 400 193.756 400C163.897 400 126.341 381.707 92.2591 356.384C89.4401 354.289 86.6451 352.146 83.8751 349.953C82.5811 348.938 81.2931 347.909 80.0111 346.865C66.8661 336.219 54.3891 324.528 42.6721 311.877C35.0001 303.619 27.8061 294.796 21.1351 285.464C-5.05188 248.413 -10.8279 215.029 26.5061 208.166C30.9271 207.356 35.2171 206.491 39.3761 205.569C45.4021 204.241 51.1691 202.807 56.6761 201.266C64.0951 199.198 71.0651 196.956 77.5861 194.538C79.7801 193.729 81.9241 192.902 84.0171 192.06C114.963 179.593 135.676 163.336 149.774 145.696C152.166 142.71 154.37 139.688 156.388 136.63C159.476 131.976 162.28 127.083 164.782 121.987C168.234 114.907 171.134 107.49 173.448 99.8231L173.575 99.4021C184.793 62.2871 181.38 27.8601 193.756 16.3381C246.657 -32.9199 312.519 37.2281 343.432 119.952C344.99 124.12 346.456 128.314 347.829 132.532C348.445 134.417 349.04 136.305 349.613 138.196C351.119 143.126 352.486 148.068 353.713 153.023C354.184 154.913 354.632 156.801 355.059 158.687C355.516 160.722 355.954 162.752 356.359 164.783C359.367 179.647 361 194.306 361 208.166Z" fill="#F2F2F2"/>
<path d="M198 399.952C196.749 399.984 195.492 400 194.231 400C164.277 400 126.601 381.754 92.411 356.495C89.582 354.405 86.778 352.267 84 350.081L86.437 333.17L160.206 322L197.23 354.287L198 399.952Z" fill="#2A3749"/>
<path d="M200.769 97H190.231C189.551 97 189 97.636 189 98.42V110.585C189 110.961 189.13 111.322 189.361 111.587C189.592 111.852 189.905 112.001 190.231 112H200.769C201.447 112 201.998 111.368 202 110.585V98.42C201.998 97.637 201.448 97.002 200.769 97Z" fill="white"/>
<path d="M200.769 118H190.231C189.551 118 189 118.636 189 119.42V131.585C189 131.961 189.13 132.322 189.361 132.587C189.592 132.853 189.905 133.001 190.231 133H200.769C201.447 133 201.998 132.368 202 131.585V119.42C201.998 118.637 201.448 118.002 200.769 118Z" fill="#E6E6E6"/>
<path d="M200.769 138H190.231C189.551 138 189 138.636 189 139.42V151.58C188.999 151.957 189.129 152.318 189.36 152.585C189.591 152.851 189.904 153.001 190.231 153H200.769C201.449 153 202 152.364 202 151.58V139.42C201.998 138.637 201.448 138.002 200.769 138Z" fill="#E6E6E6"/>
<path d="M201.981 160.169C201.873 159.494 201.364 159.003 200.769 159H190.231C189.551 159 189 159.636 189 160.42V172.58C188.999 172.957 189.129 173.318 189.36 173.585C189.591 173.851 189.904 174.001 190.231 174H200.769C201.449 174 202 173.364 202 172.58V160.42C202.001 160.336 201.995 160.252 201.981 160.169Z" fill="#E6E6E6"/>
<path d="M201.247 179.109C201.096 179.037 200.933 179 200.769 179H190.231C189.904 178.999 189.591 179.149 189.36 179.415C189.129 179.682 188.999 180.043 189 180.42V192.58C188.999 192.957 189.128 193.319 189.359 193.586C189.59 193.853 189.904 194.002 190.231 194H200.769C201.449 194 202 193.364 202 192.58V180.42C201.999 179.849 201.703 179.333 201.247 179.109Z" fill="#E6E6E6"/>
<path d="M222.769 97H212.231C211.551 97 211 97.636 211 98.42V110.585C211 110.961 211.13 111.322 211.361 111.587C211.592 111.852 211.905 112.001 212.231 112H222.769C223.447 112 223.998 111.368 224 110.585V98.42C223.998 97.637 223.448 97.002 222.769 97Z" fill="#E6E6E6"/>
<path d="M222.769 118H212.231C211.551 118 211 118.636 211 119.42V131.585C211 131.961 211.13 132.322 211.361 132.587C211.592 132.853 211.905 133.001 212.231 133H222.769C223.447 133 223.998 132.368 224 131.585V119.42C223.998 118.637 223.448 118.002 222.769 118Z" fill="#E4A109"/>
<path d="M222.769 138H212.231C211.551 138 211 138.636 211 139.42V151.58C210.999 151.957 211.129 152.318 211.36 152.585C211.591 152.851 211.904 153.001 212.231 153H222.769C223.449 153 224 152.364 224 151.58V139.42C223.998 138.637 223.448 138.002 222.769 138Z" fill="#E4A109"/>
<path d="M222.769 159H212.231C211.702 159 211.232 159.392 211.066 159.972C211.022 160.116 211 160.268 211 160.42V172.58C210.999 172.957 211.129 173.318 211.36 173.585C211.591 173.851 211.904 174.001 212.231 174H222.769C223.449 174 224 173.364 224 172.58V160.42C223.998 159.637 223.448 159.002 222.769 159Z" fill="#E4A109"/>
<path d="M222.769 179H212.231C211.904 178.999 211.591 179.149 211.36 179.415C211.129 179.682 210.999 180.043 211 180.42V192.58C210.999 192.957 211.129 193.318 211.36 193.585C211.591 193.851 211.904 194.001 212.231 194H222.769C223.449 194 224 193.364 224 192.58V180.42C224 179.636 223.449 179 222.769 179Z" fill="#E6E6E6"/>
<path d="M244.769 97H234.231C233.551 97 233 97.636 233 98.42V110.585C233 110.961 233.13 111.322 233.361 111.587C233.592 111.852 233.905 112.001 234.231 112H244.769C245.447 112 245.998 111.368 246 110.585V98.42C245.998 97.637 245.448 97.002 244.769 97Z" fill="#E4A109"/>
<path d="M244.769 118H234.231C233.551 118 233 118.636 233 119.42V131.585C233 131.961 233.13 132.322 233.361 132.587C233.592 132.853 233.905 133.001 234.231 133H244.769C245.447 133 245.998 132.368 246 131.585V119.42C245.998 118.637 245.448 118.002 244.769 118Z" fill="#E4A109"/>
<path d="M244.769 138H234.231C233.551 138 233 138.636 233 139.42V151.58C232.999 151.957 233.129 152.318 233.36 152.585C233.591 152.851 233.904 153.001 234.231 153H244.769C245.449 153 246 152.364 246 151.58V139.42C245.998 138.637 245.448 138.002 244.769 138Z" fill="#E6E6E6"/>
<path d="M244.769 159H234.231C233.551 159 233 159.636 233 160.42V172.58C232.999 172.957 233.129 173.318 233.36 173.585C233.591 173.851 233.904 174.001 234.231 174H244.769C245.449 174 246 173.364 246 172.58V160.42C245.998 159.637 245.448 159.002 244.769 159Z" fill="#E4A109"/>
<path d="M244.769 179H234.231C233.904 178.999 233.591 179.149 233.36 179.415C233.129 179.682 232.999 180.043 233 180.42V192.58C232.999 192.957 233.129 193.318 233.36 193.585C233.591 193.851 233.904 194.001 234.231 194H244.769C245.449 194 246 193.364 246 192.58V180.42C246 179.636 245.449 179 244.769 179Z" fill="#E4A109"/>
<path d="M266.769 97H256.231C255.551 97 255 97.636 255 98.42V110.585C255 110.961 255.13 111.322 255.361 111.587C255.592 111.852 255.905 112.001 256.231 112H266.769C267.447 112 267.998 111.368 268 110.585V98.42C267.998 97.637 267.448 97.002 266.769 97Z" fill="#E4A109"/>
<path d="M266.769 118H256.231C255.551 118 255 118.636 255 119.42V131.585C255 131.961 255.13 132.322 255.361 132.587C255.592 132.853 255.905 133.001 256.231 133H266.769C267.447 133 267.998 132.368 268 131.585V119.42C267.998 118.637 267.448 118.002 266.769 118Z" fill="white"/>
<path d="M266.769 138H256.231C255.551 138 255 138.636 255 139.42V151.58C254.999 151.957 255.129 152.318 255.36 152.585C255.591 152.851 255.904 153.001 256.231 153H266.769C267.449 153 268 152.364 268 151.58V139.42C267.998 138.637 267.448 138.002 266.769 138Z" fill="white"/>
<path d="M266.769 159H256.231C255.551 159 255 159.636 255 160.42V172.58C254.999 172.957 255.129 173.318 255.36 173.585C255.591 173.851 255.904 174.001 256.231 174H266.769C267.449 174 268 173.364 268 172.58V160.42C267.998 159.637 267.448 159.002 266.769 159Z" fill="#E6E6E6"/>
<path d="M266.769 179H256.231C255.904 178.999 255.591 179.149 255.36 179.415C255.129 179.682 254.999 180.043 255 180.42V192.58C254.999 192.957 255.129 193.318 255.36 193.585C255.591 193.851 255.904 194.001 256.231 194H266.769C267.449 194 268 193.364 268 192.58V180.42C268 179.636 267.449 179 266.769 179Z" fill="#E4A109"/>
<path d="M288.769 97H278.226C277.548 97.003 277 97.638 277 98.42V110.585C277 111.366 277.549 112 278.226 112H288.769C289.447 112 289.998 111.368 290 110.585V98.42C289.998 97.637 289.448 97.002 288.769 97Z" fill="white"/>
<path d="M288.769 118H278.226C277.548 118.003 277 118.638 277 119.42V131.585C277 132.367 277.549 133 278.226 133H288.769C289.447 133 289.998 132.368 290 131.585V119.42C289.998 118.637 289.448 118.002 288.769 118Z" fill="white"/>
<path d="M288.769 138H278.226C277.548 138.003 277 138.638 277 139.42V151.58C276.999 151.956 277.128 152.317 277.358 152.583C277.588 152.85 277.9 153 278.226 153H288.769C289.449 153 290 152.364 290 151.58V139.42C289.998 138.637 289.448 138.002 288.769 138Z" fill="white"/>
<path d="M288.769 159H278.226C277.548 159.003 277 159.638 277 160.42V172.58C276.999 172.956 277.128 173.317 277.358 173.583C277.588 173.85 277.9 174 278.226 174H288.769C289.449 174 290 173.364 290 172.58V160.42C289.998 159.637 289.448 159.002 288.769 159Z" fill="#E4A109"/>
<path d="M288.769 179H278.226C277.9 179 277.588 179.15 277.358 179.417C277.128 179.683 276.999 180.044 277 180.42V192.58C276.999 192.956 277.128 193.317 277.358 193.583C277.588 193.85 277.9 194 278.226 194H288.769C289.449 194 290 193.364 290 192.58V180.42C290 179.636 289.449 179 288.769 179Z" fill="#E6E6E6"/>
<path d="M310.769 97H300.226C299.548 97.003 299 97.638 299 98.42V110.585C299 111.366 299.549 112 300.226 112H310.769C311.447 112 311.998 111.368 312 110.585V98.42C311.998 97.637 311.448 97.002 310.769 97Z" fill="white"/>
<path d="M310.769 118H300.226C299.548 118.003 299 118.638 299 119.42V131.585C299 132.367 299.549 133 300.226 133H310.769C311.447 133 311.998 132.368 312 131.585V119.42C311.998 118.637 311.448 118.002 310.769 118Z" fill="white"/>
<path d="M310.769 138H300.226C299.548 138.003 299 138.638 299 139.42V151.58C298.999 151.956 299.128 152.317 299.358 152.583C299.588 152.85 299.9 153 300.226 153H310.769C311.449 153 312 152.364 312 151.58V139.42C311.998 138.637 311.448 138.002 310.769 138Z" fill="#E4A109"/>
<path d="M310.769 159H300.226C299.548 159.003 299 159.638 299 160.42V172.58C298.999 172.956 299.128 173.317 299.358 173.583C299.588 173.85 299.9 174 300.226 174H310.769C311.449 174 312 173.364 312 172.58V160.42C311.998 159.637 311.448 159.002 310.769 159Z" fill="#E6E6E6"/>
<path d="M310.769 179H300.226C299.9 179 299.588 179.15 299.358 179.417C299.128 179.683 298.999 180.044 299 180.42V192.58C298.999 192.956 299.128 193.317 299.358 193.583C299.588 193.85 299.9 194 300.226 194H310.769C311.449 194 312 193.364 312 192.58V180.42C312 179.636 311.449 179 310.769 179Z" fill="white"/>
<path d="M332.769 97H322.226C321.548 97.003 321 97.638 321 98.42V110.585C321 111.366 321.549 112 322.226 112H332.769C333.447 112 333.998 111.368 334 110.585V98.42C333.998 97.637 333.448 97.002 332.769 97Z" fill="#E4A109"/>
<path d="M332.769 118H322.226C321.548 118.003 321 118.638 321 119.42V131.585C321 132.367 321.549 133 322.226 133H332.769C333.447 133 333.998 132.368 334 131.585V119.42C333.998 118.637 333.448 118.002 332.769 118Z" fill="#E4A109"/>
<path d="M332.769 138H322.226C321.548 138.003 321 138.638 321 139.42V151.58C320.999 151.956 321.128 152.317 321.358 152.583C321.588 152.85 321.9 153 322.226 153H332.769C333.449 153 334 152.364 334 151.58V139.42C333.998 138.637 333.448 138.002 332.769 138Z" fill="#E6E6E6"/>
<path d="M332.769 159H322.226C321.548 159.003 321 159.638 321 160.42V172.58C320.999 172.956 321.128 173.317 321.358 173.583C321.588 173.85 321.9 174 322.226 174H332.769C333.449 174 334 173.364 334 172.58V160.42C333.998 159.637 333.448 159.002 332.769 159Z" fill="white"/>
<path d="M332.769 179H322.226C321.9 179 321.588 179.15 321.358 179.417C321.128 179.683 320.999 180.044 321 180.42V192.58C320.999 192.956 321.128 193.317 321.358 193.583C321.588 193.85 321.9 194 322.226 194H332.769C333.449 194 334 193.364 334 192.58V180.42C334 179.636 333.449 179 332.769 179Z" fill="#E4A109"/>
<path d="M354.769 97H344.226C343.548 97.003 343 97.638 343 98.42V110.585C343 111.366 343.549 112 344.226 112H354.769C355.447 112 355.998 111.368 356 110.585V98.42C355.998 97.637 355.448 97.002 354.769 97Z" fill="#E4A109"/>
<path d="M354.769 118H344.226C343.548 118.003 343 118.638 343 119.42V131.585C343 132.367 343.549 133 344.226 133H354.769C355.447 133 355.998 132.368 356 131.585V119.42C355.998 118.637 355.448 118.002 354.769 118Z" fill="#E4A109"/>
<path d="M354.769 138H344.226C343.548 138.003 343 138.638 343 139.42V151.58C342.999 151.956 343.128 152.317 343.358 152.583C343.588 152.85 343.9 153 344.226 153H354.769C355.449 153 356 152.364 356 151.58V139.42C355.998 138.637 355.448 138.002 354.769 138Z" fill="#E6E6E6"/>
<path d="M354.769 159H344.226C343.548 159.003 343 159.638 343 160.42V172.58C342.999 172.956 343.128 173.317 343.358 173.583C343.588 173.85 343.9 174 344.226 174H354.769C355.449 174 356 173.364 356 172.58V160.42C355.998 159.637 355.448 159.002 354.769 159Z" fill="#E4A109"/>
<path d="M354.769 179H344.226C343.9 179 343.588 179.15 343.358 179.417C343.128 179.683 342.999 180.044 343 180.42V192.58C342.999 192.956 343.128 193.317 343.358 193.583C343.588 193.85 343.9 194 344.226 194H354.769C355.449 194 356 193.364 356 192.58V180.42C356 179.636 355.449 179 354.769 179Z" fill="#E4A109"/>
<path d="M376.769 97H366.226C365.548 97.003 365 97.638 365 98.42V110.585C365 111.366 365.549 112 366.226 112H376.769C377.447 112 377.998 111.368 378 110.585V98.42C377.998 97.637 377.448 97.002 376.769 97Z" fill="#E6E6E6"/>
<path d="M376.769 118H366.226C365.548 118.003 365 118.638 365 119.42V131.585C365 132.367 365.549 133 366.226 133H376.769C377.447 133 377.998 132.368 378 131.585V119.42C377.998 118.637 377.448 118.002 376.769 118Z" fill="#E4A109"/>
<path d="M376.769 138H366.226C365.548 138.003 365 138.638 365 139.42V151.58C364.999 151.956 365.128 152.317 365.358 152.583C365.588 152.85 365.9 153 366.226 153H376.769C377.449 153 378 152.364 378 151.58V139.42C377.998 138.637 377.448 138.002 376.769 138Z" fill="#E4A109"/>
<path d="M376.769 159H366.226C365.548 159.003 365 159.638 365 160.42V172.58C364.999 172.956 365.128 173.317 365.358 173.583C365.588 173.85 365.9 174 366.226 174H376.769C377.449 174 378 173.364 378 172.58V160.42C377.998 159.637 377.448 159.002 376.769 159Z" fill="#E4A109"/>
<path d="M376.769 179H366.226C365.9 179 365.588 179.15 365.358 179.417C365.128 179.683 364.999 180.044 365 180.42V192.58C364.999 192.956 365.128 193.317 365.358 193.583C365.588 193.85 365.9 194 366.226 194H376.769C377.449 194 378 193.364 378 192.58V180.42C378 179.636 377.449 179 376.769 179Z" fill="#E6E6E6"/>
<path d="M398.769 97H388.226C387.548 97.003 387 97.638 387 98.42V110.585C387 111.366 387.549 112 388.226 112H398.769C399.447 112 399.998 111.368 400 110.585V98.42C399.998 97.637 399.448 97.002 398.769 97Z" fill="#E6E6E6"/>
<path d="M398.769 118H388.226C387.548 118.003 387 118.638 387 119.42V131.585C387 132.367 387.549 133 388.226 133H398.769C399.447 133 399.998 132.368 400 131.585V119.42C399.998 118.637 399.448 118.002 398.769 118Z" fill="#E6E6E6"/>
<path d="M398.769 138H388.226C387.548 138.003 387 138.638 387 139.42V151.58C386.999 151.956 387.128 152.317 387.358 152.583C387.588 152.85 387.9 153 388.226 153H398.769C399.449 153 400 152.364 400 151.58V139.42C399.998 138.637 399.448 138.002 398.769 138Z" fill="#E4A109"/>
<path d="M398.769 159H388.226C387.548 159.003 387 159.638 387 160.42V172.58C386.999 172.956 387.128 173.317 387.358 173.583C387.588 173.85 387.9 174 388.226 174H398.769C399.449 174 400 173.364 400 172.58V160.42C399.998 159.637 399.448 159.002 398.769 159Z" fill="#E6E6E6"/>
<path d="M398.769 179H388.226C387.9 179 387.588 179.15 387.358 179.417C387.128 179.683 386.999 180.044 387 180.42V192.58C386.999 192.956 387.128 193.317 387.358 193.583C387.588 193.85 387.9 194 388.226 194H398.769C399.449 194 400 193.364 400 192.58V180.42C400 179.636 399.449 179 398.769 179Z" fill="#E6E6E6"/>
<path d="M159 357H158L158.855 356L159 357Z" fill="#2F2E41"/>
<path d="M133 132C150.673 132 165 115.435 165 95C165 74.5655 150.673 58 133 58C115.327 58 101 74.5655 101 95C101 115.435 115.327 132 133 132Z" fill="#FFB6B6"/>
<path d="M161.4 68.268C161.4 68.268 169.84 49.906 151.272 48.236C151.272 48.236 135.442 31.894 119.307 45.249C119.307 45.249 110.507 45.249 105.694 56.583C105.694 56.583 98.772 53.595 97.251 61.591C97.251 61.591 92.186 78.283 97.251 93.307C102.316 108.331 103.998 110 103.998 110C103.998 110 95.676 78.502 115.934 76.833C136.192 75.164 158.861 60.756 160.549 79.118C162.237 97.48 164.778 102.005 164.778 102.005C164.778 102.005 180.813 75.78 161.4 68.268Z" fill="#2F2E41"/>
<path d="M172 93.566H169.635C169.635 73.12 151.938 59.723 134.085 59.712C131.488 59.703 128.897 59.991 126.35 60.572C123.484 61.227 120.508 62.011 117.585 63.033C106.056 67.073 95.365 74.884 95.365 93.566C95.363 97.194 95.767 100.808 96.567 104.318L94.277 105C93.428 101.266 92.999 97.424 93 93.566C93 77.242 98.861 66.03 108.984 59.344C114.306 55.829 120.801 53.562 128.243 52.459C131.339 51.988 134.47 51.879 137.585 52.134C158.116 53.822 172 71.822 172 93.566Z" fill="#E4A109"/>
<path d="M175.911 93.981L174.968 86.279C174.735 84.334 173.887 82.543 172.574 81.222C170.865 79.478 168.525 78.698 166.229 79.107L164.73 79.334C163.901 79.454 163.151 79.936 162.647 80.672C162.138 81.406 161.916 82.333 162.029 83.248L164.208 100.99C164.392 102.473 165.414 103.66 166.746 103.937C166.938 103.979 167.134 104 167.33 104C167.471 104 167.612 103.989 167.751 103.968L169.427 103.72C171.493 103.417 173.353 102.186 174.57 100.318C174.7 100.117 174.824 99.911 174.939 99.699C175.837 97.969 176.179 95.954 175.911 93.981Z" fill="#E4A109"/>
<path d="M163.857 80C163.394 80.243 162.991 80.601 162.681 81.046C162.145 81.801 161.911 82.756 162.03 83.698L164.326 101.966C164.52 103.493 165.597 104.715 167 105L163.857 80Z" fill="white"/>
<path d="M175.922 95.12L175.096 87.2C174.893 85.2 174.15 83.358 173 82L174.899 100.151C174.928 100.443 174.986 100.728 175.071 101C175.857 99.22 176.157 97.148 175.922 95.12Z" fill="#3F3D56"/>
<path d="M168.913 100.815C169.513 100.713 169.815 98.9222 169.587 96.8152C169.359 94.7081 168.687 93.0828 168.087 93.1848C167.487 93.2869 167.185 95.0778 167.413 97.1848C167.641 99.2919 168.313 100.917 168.913 100.815Z" fill="#3F3D56"/>
<path d="M90.938 97.311C90.845 96.835 90.672 96.388 90.429 96C89.959 97.5 89.873 99.141 90.182 100.703L91.68 108.387C92.023 110.196 92.838 111.817 94 113L90.938 97.311Z" fill="#3F3D56"/>
<path d="M166.913 90.8152C167.513 90.7131 167.815 88.9222 167.587 86.8152C167.359 84.7081 166.687 83.0828 166.087 83.1848C165.487 83.2869 165.185 85.0778 165.413 87.1848C165.641 89.2919 166.313 90.9172 166.913 90.8152Z" fill="#3F3D56"/>
<path d="M175.913 94.8152C176.513 94.7131 176.815 92.9222 176.587 90.8152C176.359 88.7081 175.687 87.0828 175.087 87.1848C174.487 87.2869 174.185 89.0778 174.413 91.1848C174.641 93.2919 175.313 94.9172 175.913 94.8152Z" fill="#3F3D56"/>
<path d="M134.18 59.689C131.575 59.68 128.975 59.968 126.421 60.546C123.545 61.199 120.56 61.981 117.627 63C113.048 62.747 109.679 61.398 109 59.322C114.339 55.817 120.854 53.558 128.319 52.457C131.425 51.988 134.566 51.879 137.691 52.134C138.361 52.58 138.83 53.329 138.982 54.194C139.205 56.071 137.321 58.066 134.18 59.689Z" fill="#3F3D56"/>
<path d="M103.918 111.515L100.268 94.466C100.002 93.208 99.09 92.253 97.955 92.043C97.799 92.015 97.64 92.001 97.481 92C97.258 92.001 97.035 92.031 96.818 92.091L95.405 92.474C91.619 93.503 89.288 97.783 90.196 102.04L91.831 109.688C92.205 111.489 93.094 113.102 94.363 114.279C94.568 114.466 94.783 114.638 95.007 114.796C96.612 115.926 98.556 116.28 100.396 115.776L101.804 115.392C102.176 115.295 102.527 115.112 102.833 114.854C103.764 114.092 104.193 112.772 103.918 111.515Z" fill="#E4A109"/>
<path d="M96.8051 108.684C97.465 108.509 97.6395 106.718 97.1949 104.684C96.7502 102.649 95.8548 101.142 95.1949 101.317C94.535 101.492 94.3605 103.282 94.8051 105.317C95.2498 107.351 96.1452 108.858 96.8051 108.684Z" fill="#3F3D56"/>
<path d="M91.8051 110.684C92.465 110.509 92.6395 108.718 92.1949 106.684C91.7502 104.649 90.8548 103.142 90.1949 103.317C89.535 103.492 89.3605 105.282 89.8051 107.317C90.2498 109.351 91.1452 110.858 91.8051 110.684Z" fill="#3F3D56"/>
<path d="M103.916 112.273L100.409 94.701C100.13 93.298 99.181 92.234 98 92L102.787 116C103.753 115.147 104.199 113.676 103.916 112.273Z" fill="white"/>
<path d="M216 185.884L215.897 186.511L214.738 193.554L206.729 242.276L206.255 245.144L205.26 251.21L203.899 259.485L200.882 277.824L200.019 283.079L199.695 285.051L199.583 285.742L198.687 291.182L198.414 292.824L196.228 311.475L194.318 327.728L200.709 335.085L196.899 339.471L194.398 355.962L194.403 356H92.338C88.209 352.921 84.14 349.747 80.13 346.477L80.969 339.239C80.969 339.239 83.86 326.313 82.644 324.768C81.434 323.224 78.778 320.463 78.778 320.463L82.124 311.475L82.588 310.227L81.809 291.63L81.791 291.182L81.532 285.051L81.5 284.262L81.448 283.079L80.458 259.485L80.439 259.096L80.139 251.945L79.857 245.144L79.735 242.276L78.53 213.578L77.713 194.089L77 177.123L79.867 176.005L110.529 164.008L123.23 145L149.665 145.227L162.605 145.34L184.198 168.394L189.11 171.095L189.148 171.116L192.671 173.056L201.605 177.966L211.05 183.162L215.897 185.825L216 185.884Z" fill="#CACACA"/>
<path d="M125.82 300.896C121.913 302.644 117.536 302.304 113.868 299.966C110.199 297.629 107.615 293.535 106.811 288.786L57 280.623L74.316 258L118.963 269.219C126.117 268.165 132.823 273.458 134.573 281.54C136.322 289.621 132.562 297.937 125.82 300.896Z" fill="#FFB6B6"/>
<path d="M104.623 259.071C103.689 257.724 102.368 256.795 100.892 256.449L80.219 251.556L78.096 251.055C75.601 250.462 73.445 248.686 72.171 246.173C71.518 244.868 71.122 243.417 71.013 241.92C70.914 240.559 71.057 239.19 71.434 237.893L78.597 213.319L83.245 197.374C83.809 195.451 84.141 193.45 84.234 191.425C84.493 185.823 82.97 180.302 79.945 175.873C74.484 167.881 65.073 164.899 56.771 168.53C56.652 168.579 56.529 168.633 56.411 168.687C50.532 171.359 46.099 177.024 44.443 183.98L39.394 204.894L28.977 248.008C26.867 256.75 28.212 266.104 32.661 273.623C37.11 281.142 44.219 286.076 52.127 287.134L81.902 291.106L95.681 292.948C98.985 293.4 102.04 290.885 102.698 287.171C102.72 287.074 102.738 286.975 102.75 286.875L103.081 284.55L105.885 264.966L105.913 264.766C106.209 262.745 105.74 260.677 104.623 259.071Z" fill="#CACACA"/>
<path d="M158.14 301.579C162.234 302.667 166.539 301.623 169.896 298.727C173.253 295.832 175.317 291.382 175.534 286.576L224 270.47L204.034 251L161.07 269.279C153.836 269.4 147.825 275.698 147.077 283.938C146.33 292.179 151.083 299.757 158.14 301.579Z" fill="#FFB6B6"/>
<path d="M248.757 234.238L225.71 172.988C223.825 167.96 220.458 163.865 216.207 161.43C214.893 160.683 213.513 160.102 212.091 159.698C211.87 159.633 211.65 159.573 211.43 159.524C208.414 158.765 205.286 158.831 202.297 159.719C196.771 161.359 192.11 165.636 189.479 171.483C189.465 171.507 189.452 171.533 189.442 171.559C186.496 178.14 186.431 185.946 189.268 192.591L189.554 193.251L205.841 231.022C206.966 233.635 207.072 236.677 206.131 239.385C205.191 242.093 203.295 244.209 200.918 245.2L199.775 245.677L179.203 254.257C175.994 255.579 174.268 259.597 175.297 263.347L175.349 263.536L181.115 284.844C181.143 284.942 181.172 285.039 181.204 285.137C181.255 285.321 181.318 285.5 181.392 285.673C182.658 288.952 185.801 290.68 188.804 289.749L199.906 286.366L202.17 285.673L230.839 276.93C238.472 274.601 244.845 268.54 248.289 260.336C251.732 252.131 251.903 242.6 248.757 234.238Z" fill="#CACACA"/>
<path d="M21 286C27.656 295.32 34.834 304.132 42.488 312.38H254.773C259.031 312.388 262.481 316.351 262.485 321.24L262.79 383C275.85 376.111 288.08 367.315 299.177 356.83C302.258 353.924 305.244 350.891 308.134 347.733C310.027 345.673 311.874 343.563 313.676 341.402C327.186 325.244 338.126 306.493 346 286H21Z" fill="#2A3749"/>
<path d="M314 341C312.192 343.049 310.334 345.049 308.428 347H263V341H314Z" fill="white"/>
<path d="M215.681 138.567C215.227 137.601 214.35 137 213.396 137H59.599C58.163 137.004 57.001 138.345 57 139.998V246H216V139.998C216.002 139.497 215.893 139.004 215.681 138.567Z" fill="#2A3749"/>
<path d="M56 243V256.111C56 257.209 56.379 258.262 57.054 259.038C57.729 259.814 58.645 260.25 59.599 260.25H118.5V286.125H117.718C117.594 286.125 117.475 286.182 117.387 286.282C117.299 286.383 117.25 286.52 117.25 286.663V288.462C117.25 288.605 117.299 288.742 117.387 288.843C117.475 288.943 117.594 289 117.718 289H154.282C154.406 289 154.525 288.943 154.613 288.843C154.701 288.742 154.75 288.605 154.75 288.462V286.663C154.75 286.52 154.701 286.383 154.613 286.282C154.525 286.182 154.406 286.125 154.282 286.125H153.5V260.25H212.401C213.355 260.25 214.271 259.814 214.946 259.038C215.621 258.262 216 257.209 216 256.111V243H56Z" fill="#2A3749"/>
<path d="M134.5 205C142.508 205 149 197.389 149 188C149 178.611 142.508 171 134.5 171C126.492 171 120 178.611 120 188C120 197.389 126.492 205 134.5 205Z" fill="#E4A109"/>
</g>
<defs>
<clipPath id="clip0_1_2">
<rect width="400" height="400" fill="white"/>
</clipPath>
</defs>
</svg>
